<svg xmlns="http://www.w3.org/2000/svg" width="542.14" height="114.51" viewBox="0 0 542.14 114.51"><defs><style>.\30 bbcfa89-bcef-4b3c-ae9c-f2b048448674{fill:#ef4056;}.c286050a-fb41-4b54-95bc-9bdb34ffdda4{fill:#fff;}</style></defs><title>tinycon</title><g id="70d336a4-5114-4408-a2d8-ec199f9269f6" data-name="Layer 2"><g id="c11dba63-5a20-45d3-9d1b-f91029ebf794" data-name="Layer 1"><path class="0bbcfa89-bcef-4b3c-ae9c-f2b048448674" d="M200.72,74.06V48h-7.8V38.37l8.47-.56,1.56-15h10.71v15H227.6V48H213.66v26.1c0,6.47,2.46,9.6,7.7,9.6a15.76,15.76,0,0,0,5.69-1.23l2.23,9.48a35.12,35.12,0,0,1-11.16,2C205.41,93.92,200.72,85.89,200.72,74.06Z" transform="translate(0 -0.6)"/><path class="0bbcfa89-bcef-4b3c-ae9c-f2b048448674" d="M237.64,21c0-4.35,3.35-7.36,7.92-7.36s7.92,3,7.92,7.36-3.35,7.25-7.92,7.25S237.64,25.21,237.64,21Zm1.45,16.84h12.83V92.58H239.09Z" transform="translate(0 -0.6)"/><path class="0bbcfa89-bcef-4b3c-ae9c-f2b048448674" d="M268.31,37.81h10.6l.89,7.36h.45c4.91-4.79,10.48-8.7,18-8.7,11.71,0,16.84,7.92,16.84,21.75V92.58H302.22V59.9c0-9-2.56-12.38-8.59-12.38-4.79,0-7.92,2.34-12.49,6.8V92.58H268.31Z" transform="translate(0 -0.6)"/><path class="0bbcfa89-bcef-4b3c-ae9c-f2b048448674" d="M327.32,114l2.34-10a13.62,13.62,0,0,0,3.91.78c5.79,0,9.14-3.91,10.93-9.37l1-3.46L324,37.81h13l9.48,26.88c1.57,4.8,3.13,10.26,4.8,15.39h.45c1.33-5,2.78-10.48,4.12-15.39l8.26-26.88h12.38L356.65,95c-4.57,12.38-10.26,20.08-22.19,20.08A21.29,21.29,0,0,1,327.32,114Z" transform="translate(0 -0.6)"/><path class="0bbcfa89-bcef-4b3c-ae9c-f2b048448674" d="M381.75,65.25c0-18.29,12.83-28.78,27.44-28.78a23.59,23.59,0,0,1,16.06,6.14L419,51c-2.9-2.56-5.68-4-9.14-4-8.81,0-14.95,7.25-14.95,18.29s6,18.18,14.61,18.18c4.24,0,8.15-2.12,11.27-4.68L426,87.22a27.31,27.31,0,0,1-17.85,6.7C393.24,93.92,381.75,83.43,381.75,65.25Z" transform="translate(0 -0.6)"/><path class="0bbcfa89-bcef-4b3c-ae9c-f2b048448674" d="M430.6,65.25c0-18.29,12.38-28.78,26-28.78s26.1,10.49,26.1,28.78-12.38,28.67-26.1,28.67S430.6,83.43,430.6,65.25Zm38.93,0c0-11-4.91-18.29-12.94-18.29s-12.82,7.25-12.82,18.29,4.79,18.18,12.82,18.18S469.53,76.18,469.53,65.25Z" transform="translate(0 -0.6)"/><path class="0bbcfa89-bcef-4b3c-ae9c-f2b048448674" d="M495.41,37.81H506l.9,7.36h.44c4.91-4.79,10.49-8.7,18-8.7,11.71,0,16.84,7.92,16.84,21.75V92.58H529.32V59.9c0-9-2.57-12.38-8.59-12.38-4.8,0-7.92,2.34-12.5,6.8V92.58H495.41Z" transform="translate(0 -0.6)"/><path class="0bbcfa89-bcef-4b3c-ae9c-f2b048448674" d="M159.81,80.5C159.81,124.63,0,124.63,0,80.5a79.91,79.91,0,0,1,159.81,0Z" transform="translate(0 -0.6)"/><path class="c286050a-fb41-4b54-95bc-9bdb34ffdda4" d="M79.71,40.1c0,8.5-3.31,6.5-8,6.5s-9,3-9-6.5a8.5,8.5,0,0,1,17,0Z" transform="translate(0 -0.6)"/><path class="c286050a-fb41-4b54-95bc-9bdb34ffdda4" d="M114.71,39.1c0,8.5-3.31,6.5-8,6.5s-9,3-9-6.5a8.5,8.5,0,0,1,17,0Z" transform="translate(0 -0.6)"/><path class="c286050a-fb41-4b54-95bc-9bdb34ffdda4" d="M119.71,71.9c0,13.09-13,23.7-29,23.7s-29-10.61-29-23.7c0-11.3,14.5-2.3,29-2.3S119.71,60.6,119.71,71.9Z" transform="translate(0 -0.6)"/><circle cx="73.21" cy="37.5" r="3.5"/><circle cx="108.21" cy="36.5" r="3.5"/><path class="c286050a-fb41-4b54-95bc-9bdb34ffdda4" d="M11.54,51q-1.45,3.18-2.83,6.65l5,.85q.9-2.46,1.94-4.85Z" transform="translate(0 -0.6)"/><path class="c286050a-fb41-4b54-95bc-9bdb34ffdda4" d="M56.36,9.75C34.46,17.3,22.52,28.61,13.27,47.31l4.12,2.63C26.1,32.22,40.54,18.68,58.87,12.79Z" transform="translate(0 -0.6)"/></g></g></svg>