<?xml version="1.0" encoding="utf-8"?>
<!-- Generator: Adobe Illustrator 21.1.0, SVG Export Plug-In . SVG Version: 6.00 Build 0)  -->
<svg version="1.1" id="Layer_1" xmlns="http://www.w3.org/2000/svg" xmlns:xlink="http://www.w3.org/1999/xlink" x="0px" y="0px"
	 viewBox="0 0 542.1 114.5" style="enable-background:new 0 0 542.1 114.5;" xml:space="preserve">
<style type="text/css">
	.st0{fill:#EF4056;}
	.st1{fill:#FFFFFF;}
</style>
<title>tinycon</title>
<g id="fd1bd840-b5fa-454a-9d23-4349717e5fe2">
	<g id="_x35_17963d0-99f4-4050-99c6-69de86677f22">
		<path class="st0" d="M200.7,73.5V47.4h-7.8v-9.6l8.5-0.6l1.6-14.9h10.7v15h13.9v10.2h-13.9v26.1c0,6.5,2.4,9.6,7.7,9.6
			c1.9-0.1,3.9-0.5,5.6-1.3l2.2,9.5c-3.6,1.3-7.3,1.9-11.1,2C205.4,93.3,200.7,85.3,200.7,73.5z"/>
		<path class="st0" d="M237.6,20.4c0-4.4,3.4-7.4,7.9-7.4s7.9,3,7.9,7.4s-3.4,7.2-7.9,7.2S237.6,24.6,237.6,20.4z M239.1,37.2h12.8
			V92h-12.8V37.2z"/>
		<path class="st0" d="M268.3,37.2h10.6l0.9,7.4h0.5c4.9-4.8,10.5-8.7,18-8.7c11.7,0,16.8,7.9,16.8,21.8V92h-12.9V59.3
			c0-9-2.6-12.4-8.6-12.4c-4.8,0-7.9,2.3-12.5,6.8V92h-12.8V37.2z"/>
		<path class="st0" d="M327.3,113.4l2.3-10c1.3,0.5,2.6,0.7,3.9,0.8c5.8,0,9.1-3.9,10.9-9.4l1-3.5L324,37.2h13l9.5,26.9
			c1.6,4.8,3.1,10.3,4.8,15.4h0.5c1.3-5,2.8-10.5,4.1-15.4l8.2-26.9h12.4l-19.8,57.2c-4.6,12.4-10.3,20.1-22.2,20.1
			C332,114.5,329.6,114.2,327.3,113.4z"/>
		<path class="st0" d="M381.8,64.7c0-18.3,12.8-28.8,27.4-28.8c5.9,0,11.7,2.1,16.1,6.1l-6.2,8.4c-2.9-2.6-5.7-4-9.1-4
			c-8.8,0-15,7.2-15,18.3s6,18.2,14.6,18.2c4.2,0,8.1-2.1,11.3-4.7l5.2,8.4c-5,4.3-11.3,6.7-17.9,6.7
			C393.2,93.3,381.8,82.8,381.8,64.7z"/>
		<path class="st0" d="M430.6,64.7c0-18.3,12.4-28.8,26-28.8s26.1,10.5,26.1,28.8s-12.4,28.7-26.1,28.7S430.6,82.8,430.6,64.7z
			 M469.5,64.7c0-11-4.9-18.3-12.9-18.3s-12.8,7.2-12.8,18.3s4.8,18.2,12.8,18.2S469.5,75.6,469.5,64.7z"/>
		<path class="st0" d="M495.4,37.2H506l0.9,7.4h0.5c4.9-4.8,10.5-8.7,18-8.7c11.7,0,16.8,7.9,16.8,21.8V92h-12.9V59.3
			c0-9-2.6-12.4-8.6-12.4c-4.8,0-7.9,2.3-12.5,6.8V92h-12.8V37.2z"/>
		<path class="st0" d="M159.8,79.9C159.8,124,0,124,0,79.9C0,35.8,35.8,0,79.9,0S159.8,35.8,159.8,79.9z"/>
		<path class="st1" d="M79.7,39.5c0,8.5-3.3,6.5-8,6.5s-9,3-9-6.5c0-4.7,3.8-8.5,8.5-8.5S79.7,34.8,79.7,39.5z"/>
		<path class="st1" d="M114.7,38.5c0,8.5-3.3,6.5-8,6.5s-9,3-9-6.5c0-4.7,3.8-8.5,8.5-8.5S114.7,33.8,114.7,38.5z"/>
		<path class="st1" d="M119.7,71.3c0,13.1-13,23.7-29,23.7s-29-10.6-29-23.7c0-11.3,14.5-2.3,29-2.3S119.7,60,119.7,71.3z"/>
		<circle cx="73.2" cy="37.5" r="3.5"/>
		<circle cx="108.2" cy="36.5" r="3.5"/>
		<path class="st1" d="M11.5,50.4c-1,2.1-1.9,4.3-2.8,6.7l5.1,0.9c0.6-1.7,1.2-3.3,1.9-4.8L11.5,50.4z"/>
		<path class="st1" d="M56.4,9.1C34.5,16.7,22.5,28,13.3,46.7l4.1,2.6c8.7-17.7,23.2-31.3,41.5-37.2L56.4,9.1z"/>
	</g>
</g>
</svg>
